<svg height="512" viewBox="0 0 512 512" width="512" xmlns="http://www.w3.org/2000/svg"><g id="Outline"><path d="m136 56h-32a8 8 0 0 0 -8 8v32a8 8 0 0 0 8 8h32a8 8 0 0 0 8-8v-32a8 8 0 0 0 -8-8zm-8 32h-16v-16h16z"/><path d="m248 296h16v16h-16z"/><path d="m248 328h16v16h-16z"/><path d="m248 360h16v16h-16z"/><path d="m248 392h16v16h-16z"/><path d="m248 424h16v16h-16z"/><path d="m280 296h16v16h-16z"/><path d="m280 328h16v16h-16z"/><path d="m280 360h16v16h-16z"/><path d="m280 392h16v16h-16z"/><path d="m280 424h16v16h-16z"/><path d="m312 296h16v16h-16z"/><path d="m312 328h16v16h-16z"/><path d="m312 360h16v16h-16z"/><path d="m312 392h16v16h-16z"/><path d="m312 424h16v16h-16z"/><path d="m392 328h16v16h-16z"/><path d="m392 360h16v16h-16z"/><path d="m392 392h16v16h-16z"/><path d="m392 424h16v16h-16z"/><path d="m424 328h16v16h-16z"/><path d="m424 360h16v16h-16z"/><path d="m424 392h16v16h-16z"/><path d="m424 424h16v16h-16z"/><path d="m480 480v-176a8 8 0 0 0 -6.869-7.919l-17.131-2.448v-29.633h16v-16h-16v-16h-16v16h-24v-32h16v-16h-16v-16h-16v16h-16v16h16v32h-16v16h16v21.633l-32-4.571v-25.062a8 8 0 0 0 -8-8h-8v-32h-16v32h-16v-48h16v-16h-16v-32h-16v32h-16v-16h-16v16h-16v16h16v48h-32v-16h16v-16h-16v-48h16v-16h-16v-16h-16v16h-16v16h16v48h-16v16h16v16h-8a8 8 0 0 0 -8 8v224h-16v-24a8 8 0 0 0 -8-8h-32v-312h16a8 8 0 0 0 8-8v-24h288a8 8 0 0 0 5.657-13.657l-32-32a8 8 0 0 0 -5.657-2.343h-256v-24a8 8 0 0 0 -8-8h-96a8 8 0 0 0 -8 8v16h-24a8 8 0 0 0 -8 8v8h-16v16h16v8a8 8 0 0 0 4.422 7.155l27.578 13.789v19.056a8 8 0 0 0 8 8h16v312h-32a8 8 0 0 0 -8 8v24h-32v16h480v-16zm-131.313-392h-25.374l-16-16h25.374zm6.626-16h25.374l16 16h-25.374zm-54.626 16h-25.374l-16-16h25.374zm-48 0h-25.374l-16-16h25.374zm192 0h-25.374l-16-16h25.374zm-256-16 16 16h-28.687v-16zm227.313 192h24v27.348l-24-3.429zm48 46.938v169.062h-96v-182.776zm-176-110.938h16v48h-16zm-64 64h128v216h-128zm-108.687 184 20.687-20.687v20.687zm-11.313-268.687 32-32v33.374l-32 32zm0 56 32-32v33.374l-32 32zm0 56 32-32v33.374l-32 32zm0 56 32-32v33.374l-32 32zm0 56 32-32v33.374l-32 32zm-56-320.257v-19.056h16v27.056zm32-43.056h80v80h-80zm44.687 96-20.687 20.687v-20.687zm-60.687 328h112v16h-112z"/><path d="m304 120h16v16h-16z"/><path d="m400 152h16v16h-16z"/></g></svg>