<?xml version="1.0" encoding="iso-8859-1"?>
<!-- Generator: Adobe Illustrator 19.0.0, SVG Export Plug-In . SVG Version: 6.00 Build 0)  -->
<svg version="1.1" id="Capa_1" xmlns="http://www.w3.org/2000/svg" xmlns:xlink="http://www.w3.org/1999/xlink" x="0px" y="0px"
	 viewBox="0 0 388.568 388.568" style="enable-background:new 0 0 388.568 388.568;" xml:space="preserve">
<g>
	<g>
		<path d="M337.176,212.124c0.728-5.928,1.104-11.888,1.104-17.84c0-5.952-0.376-11.912-1.112-17.832l51.392-29.664l-56-97
			l-51.504,29.728c-9.536-7.248-19.832-13.216-30.776-17.84V2.284h-112v59.392c-10.944,4.632-21.24,10.592-30.776,17.84L56,49.788
			L0,146.78l51.384,29.664c-0.736,5.928-1.104,11.888-1.104,17.84c0,5.952,0.368,11.912,1.112,17.832L0.008,241.78l56,96.992
			l51.504-29.728c9.536,7.248,19.832,13.216,30.776,17.84v59.4h112v-59.392c10.944-4.632,21.232-10.592,30.776-17.84l51.504,29.728
			l56-96.992L337.176,212.124z M320.84,295.076l-43.416-25.064l-8.632,7.712c-11.648,10.4-24.944,18.112-39.512,22.904l-11,3.616
			v50.04h-48v-50.04l-11-3.624c-14.576-4.8-27.872-12.504-39.512-22.904l-8.632-7.712l-43.424,25.064l-24-41.568L87,228.508
			l-2.36-11.336c-1.568-7.512-2.36-15.216-2.36-22.888s0.792-15.376,2.36-22.896L87,160.052L43.712,135.06l24-41.568l43.424,25.064
			l8.632-7.712c11.64-10.4,24.936-18.104,39.512-22.904l11-3.616v-50.04h48v50.04l11,3.624
			c14.568,4.792,27.864,12.504,39.512,22.904l8.632,7.712L320.84,93.5l24,41.568l-43.28,24.992l2.36,11.336
			c1.56,7.512,2.36,15.216,2.36,22.888s-0.8,15.376-2.36,22.896l-2.36,11.336l43.28,24.992L320.84,295.076z"/>
	</g>
</g>
<g>
	<g>
		<path d="M194.28,122.284c-39.696,0-72,32.304-72,72s32.304,72,72,72c39.704,0,72-32.304,72-72S233.984,122.284,194.28,122.284z
			 M194.28,234.284c-22.056,0-40-17.944-40-40c0-22.056,17.944-40,40-40c22.056,0,40,17.944,40,40
			C234.28,216.34,216.336,234.284,194.28,234.284z"/>
	</g>
</g>
<g>
</g>
<g>
</g>
<g>
</g>
<g>
</g>
<g>
</g>
<g>
</g>
<g>
</g>
<g>
</g>
<g>
</g>
<g>
</g>
<g>
</g>
<g>
</g>
<g>
</g>
<g>
</g>
<g>
</g>
</svg>
